<svg width="1240" height="1024" viewBox="0 0 1240 1024" fill="none" xmlns="http://www.w3.org/2000/svg">
<rect width="1240" height="1024" fill="#CFB7E8"/>
<mask id="path-2-inside-1" fill="white">
<path fill-rule="evenodd" clip-rule="evenodd" d="M62.2894 363.832C56.9655 355.224 53.9665 345.493 53.9665 335.19C53.9665 300.063 88.8282 271.587 131.832 271.587C159.483 271.587 183.768 283.36 197.584 301.104C211.394 290.904 229.703 284.693 249.788 284.693C271.325 284.693 290.82 291.835 304.917 303.379C313.43 300.768 322.65 299.341 332.279 299.341C369.313 299.341 400.309 320.459 408.201 348.757C412.346 348.2 416.601 347.911 420.939 347.911C463.943 347.911 498.804 376.387 498.804 411.514C498.804 446.641 463.943 475.117 420.939 475.117C405.895 475.117 391.847 471.632 379.94 465.597C369.618 490.842 340.444 509.039 306.067 509.039C282.972 509.039 262.225 500.826 247.965 487.78C235.966 510.275 208.505 526 176.547 526C143.766 526 115.716 509.453 104.232 486.026C95.9982 488.447 87.1206 489.765 77.8659 489.765C34.8618 489.765 0 461.289 0 426.162C0 395.392 26.7493 369.726 62.2894 363.832Z"/>
</mask>
<path d="M62.2894 363.832L63.1075 368.764L70.4646 367.544L66.5418 361.201L62.2894 363.832ZM197.584 301.104L193.639 304.175L196.633 308.021L200.554 305.126L197.584 301.104ZM304.917 303.379L301.749 307.247L303.822 308.944L306.383 308.159L304.917 303.379ZM408.201 348.757L403.385 350.101L404.554 354.293L408.867 353.713L408.201 348.757ZM379.94 465.597L382.2 461.137L377.364 458.686L375.312 463.705L379.94 465.597ZM247.965 487.78L251.34 484.091L246.586 479.742L243.554 485.427L247.965 487.78ZM104.232 486.026L108.722 483.826L106.867 480.041L102.823 481.229L104.232 486.026ZM66.5418 361.201C61.6697 353.324 58.9665 344.496 58.9665 335.19H48.9665C48.9665 346.49 52.2614 357.123 58.0371 366.462L66.5418 361.201ZM58.9665 335.19C58.9665 303.722 90.5964 276.587 131.832 276.587V266.587C87.0601 266.587 48.9665 296.403 48.9665 335.19H58.9665ZM131.832 276.587C158.129 276.587 180.88 287.789 193.639 304.175L201.529 298.032C186.657 278.93 160.838 266.587 131.832 266.587V276.587ZM200.554 305.126C213.462 295.593 230.718 289.693 249.788 289.693V279.693C228.688 279.693 209.327 286.216 194.613 297.082L200.554 305.126ZM249.788 289.693C270.241 289.693 288.6 296.479 301.749 307.247L308.085 299.51C293.041 287.191 272.409 279.693 249.788 279.693V289.693ZM306.383 308.159C314.417 305.695 323.144 304.341 332.279 304.341V294.341C322.157 294.341 312.442 295.842 303.451 298.598L306.383 308.159ZM332.279 304.341C367.647 304.341 396.238 324.475 403.385 350.101L413.017 347.414C404.38 316.444 370.979 294.341 332.279 294.341V304.341ZM408.867 353.713C412.791 353.185 416.823 352.911 420.939 352.911V342.911C416.378 342.911 411.901 343.215 407.535 343.802L408.867 353.713ZM420.939 352.911C462.175 352.911 493.804 380.046 493.804 411.514H503.804C503.804 372.727 465.711 342.911 420.939 342.911V352.911ZM493.804 411.514C493.804 442.982 462.175 470.117 420.939 470.117V480.117C465.711 480.117 503.804 450.301 503.804 411.514H493.804ZM420.939 470.117C406.662 470.117 393.391 466.81 382.2 461.137L377.679 470.057C390.303 476.455 405.127 480.117 420.939 480.117V470.117ZM375.312 463.705C365.911 486.697 338.849 504.039 306.067 504.039V514.039C342.039 514.039 373.325 494.987 384.568 467.489L375.312 463.705ZM306.067 504.039C284.128 504.039 264.612 496.233 251.34 484.091L244.59 491.469C259.838 505.419 281.815 514.039 306.067 514.039V504.039ZM243.554 485.427C232.568 506.021 206.987 521 176.547 521V531C210.022 531 239.364 514.528 252.377 490.134L243.554 485.427ZM176.547 521C145.311 521 119.217 505.235 108.722 483.826L99.7428 488.227C112.215 513.671 142.221 531 176.547 531V521ZM102.823 481.229C95.0488 483.514 86.6461 484.765 77.8659 484.765V494.765C87.5952 494.765 96.9477 493.379 105.642 490.824L102.823 481.229ZM77.8659 484.765C36.6299 484.765 5 457.63 5 426.162H-5C-5 464.949 33.0936 494.765 77.8659 494.765V484.765ZM5 426.162C5 398.567 29.1824 374.39 63.1075 368.764L61.4714 358.899C24.3162 365.061 -5 392.218 -5 426.162H5Z" fill="#464246" mask="url(#path-2-inside-1)"/>
<path fill-rule="evenodd" clip-rule="evenodd" d="M85.4179 342.245C80.094 333.637 77.095 323.906 77.095 313.603C77.095 278.476 111.957 250 154.961 250C182.612 250 206.897 261.773 220.712 279.517C234.523 269.318 252.831 263.106 272.916 263.106C294.454 263.106 313.949 270.249 328.045 281.792C336.558 279.182 345.779 277.754 355.408 277.754C392.442 277.754 423.437 298.873 431.33 327.171C435.474 326.614 439.729 326.324 444.067 326.324C487.071 326.324 521.933 354.8 521.933 389.927C521.933 425.055 487.071 453.531 444.067 453.531C429.023 453.531 414.975 450.046 403.068 444.01C392.747 469.255 363.573 487.453 329.196 487.453C306.1 487.453 285.353 479.239 271.094 466.194C259.094 488.688 231.633 504.413 199.676 504.413C166.894 504.413 138.844 487.866 127.361 464.44C119.127 466.86 110.249 468.179 100.994 468.179C57.9902 468.179 23.1285 439.703 23.1285 404.575C23.1285 373.806 49.8778 348.139 85.4179 342.245Z" fill="url(#paint0_linear)"/>
<mask id="path-5-inside-2" fill="white">
<path fill-rule="evenodd" clip-rule="evenodd" d="M777.289 777.831C771.966 769.224 768.966 759.493 768.966 749.19C768.966 714.063 803.828 685.587 846.832 685.587C874.483 685.587 898.768 697.359 912.584 715.104C926.394 704.904 944.703 698.693 964.788 698.693C986.325 698.693 1005.82 705.835 1019.92 717.379C1028.43 714.768 1037.65 713.341 1047.28 713.341C1084.31 713.341 1115.31 734.459 1123.2 762.757C1127.35 762.2 1131.6 761.911 1135.94 761.911C1178.94 761.911 1213.8 790.387 1213.8 825.514C1213.8 860.641 1178.94 889.117 1135.94 889.117C1120.89 889.117 1106.85 885.632 1094.94 879.597C1084.62 904.842 1055.44 923.039 1021.07 923.039C997.972 923.039 977.225 914.826 962.965 901.78C950.966 924.275 923.505 940 891.547 940C858.766 940 830.716 923.453 819.232 900.026C810.998 902.447 802.121 903.765 792.866 903.765C749.862 903.765 715 875.289 715 840.162C715 809.392 741.749 783.726 777.289 777.831Z"/>
</mask>
<path d="M777.289 777.831L778.107 782.764L785.465 781.544L781.542 775.201L777.289 777.831ZM912.584 715.104L908.639 718.175L911.633 722.021L915.554 719.126L912.584 715.104ZM1019.92 717.379L1016.75 721.247L1018.82 722.944L1021.38 722.159L1019.92 717.379ZM1123.2 762.757L1118.38 764.101L1119.55 768.293L1123.87 767.713L1123.2 762.757ZM1094.94 879.597L1097.2 875.137L1092.36 872.686L1090.31 877.705L1094.94 879.597ZM962.965 901.78L966.34 898.091L961.586 893.742L958.554 899.427L962.965 901.78ZM819.232 900.026L823.722 897.826L821.867 894.041L817.823 895.229L819.232 900.026ZM781.542 775.201C776.67 767.324 773.966 758.496 773.966 749.19H763.966C763.966 760.49 767.261 771.123 773.037 780.462L781.542 775.201ZM773.966 749.19C773.966 717.722 805.596 690.587 846.832 690.587V680.587C802.06 680.587 763.966 710.403 763.966 749.19H773.966ZM846.832 690.587C873.129 690.587 895.88 701.789 908.639 718.175L916.529 712.032C901.657 692.93 875.838 680.587 846.832 680.587V690.587ZM915.554 719.126C928.462 709.593 945.718 703.693 964.788 703.693V693.693C943.688 693.693 924.327 700.216 909.613 711.082L915.554 719.126ZM964.788 703.693C985.241 703.693 1003.6 710.479 1016.75 721.247L1023.08 713.51C1008.04 701.191 987.409 693.693 964.788 693.693V703.693ZM1021.38 722.159C1029.42 719.695 1038.14 718.341 1047.28 718.341V708.341C1037.16 708.341 1027.44 709.842 1018.45 712.598L1021.38 722.159ZM1047.28 718.341C1082.65 718.341 1111.24 738.474 1118.38 764.101L1128.02 761.414C1119.38 730.444 1085.98 708.341 1047.28 708.341V718.341ZM1123.87 767.713C1127.79 767.185 1131.82 766.911 1135.94 766.911V756.911C1131.38 756.911 1126.9 757.215 1122.54 757.802L1123.87 767.713ZM1135.94 766.911C1177.17 766.911 1208.8 794.046 1208.8 825.514H1218.8C1218.8 786.727 1180.71 756.911 1135.94 756.911V766.911ZM1208.8 825.514C1208.8 856.981 1177.17 884.117 1135.94 884.117V894.117C1180.71 894.117 1218.8 864.301 1218.8 825.514H1208.8ZM1135.94 884.117C1121.66 884.117 1108.39 880.81 1097.2 875.137L1092.68 884.057C1105.3 890.455 1120.13 894.117 1135.94 894.117V884.117ZM1090.31 877.705C1080.91 900.697 1053.85 918.039 1021.07 918.039V928.039C1057.04 928.039 1088.33 908.987 1099.57 881.489L1090.31 877.705ZM1021.07 918.039C999.128 918.039 979.612 910.233 966.34 898.091L959.59 905.469C974.838 919.419 996.815 928.039 1021.07 928.039V918.039ZM958.554 899.427C947.568 920.021 921.987 935 891.547 935V945C925.022 945 954.364 928.528 967.377 904.134L958.554 899.427ZM891.547 935C860.311 935 834.217 919.235 823.722 897.826L814.743 902.227C827.215 927.67 857.221 945 891.547 945V935ZM817.823 895.229C810.049 897.514 801.646 898.765 792.866 898.765V908.765C802.595 908.765 811.948 907.379 820.642 904.823L817.823 895.229ZM792.866 898.765C751.63 898.765 720 871.63 720 840.162H710C710 878.949 748.094 908.765 792.866 908.765V898.765ZM720 840.162C720 812.567 744.182 788.39 778.107 782.764L776.471 772.899C739.316 779.061 710 806.218 710 840.162H720Z" fill="#464246" mask="url(#path-5-inside-2)"/>
<path fill-rule="evenodd" clip-rule="evenodd" d="M800.418 756.245C795.094 747.637 792.095 737.906 792.095 727.603C792.095 692.476 826.957 664 869.961 664C897.612 664 921.897 675.773 935.712 693.517C949.523 683.318 967.832 677.106 987.916 677.106C1009.45 677.106 1028.95 684.249 1043.05 695.792C1051.56 693.182 1060.78 691.754 1070.41 691.754C1107.44 691.754 1138.44 712.873 1146.33 741.171C1150.47 740.614 1154.73 740.324 1159.07 740.324C1202.07 740.324 1236.93 768.8 1236.93 803.927C1236.93 839.055 1202.07 867.531 1159.07 867.531C1144.02 867.531 1129.98 864.046 1118.07 858.01C1107.75 883.255 1078.57 901.453 1044.2 901.453C1021.1 901.453 1000.35 893.239 986.094 880.194C974.094 902.688 946.633 918.413 914.676 918.413C881.894 918.413 853.844 901.866 842.361 878.44C834.127 880.86 825.249 882.179 815.994 882.179C772.99 882.179 738.129 853.703 738.129 818.575C738.129 787.806 764.878 762.139 800.418 756.245Z" fill="url(#paint1_linear)"/>
<defs>
<linearGradient id="paint0_linear" x1="272.531" y1="250" x2="272.531" y2="504.413" gradientUnits="userSpaceOnUse">
<stop offset="0.260417" stop-color="#454245"/>
<stop offset="1" stop-color="#464246" stop-opacity="0.44"/>
</linearGradient>
<linearGradient id="paint1_linear" x1="987.531" y1="664" x2="987.531" y2="918.413" gradientUnits="userSpaceOnUse">
<stop offset="0.260417" stop-color="#454245"/>
<stop offset="1" stop-color="#464246" stop-opacity="0.44"/>
</linearGradient>
</defs>
</svg>
