<svg width="1240" height="1024" viewBox="0 0 1240 1024" fill="none" xmlns="http://www.w3.org/2000/svg">
<rect width="1240" height="1024" fill="#FFF6A6"/>
<mask id="path-2-inside-1" fill="white">
<path fill-rule="evenodd" clip-rule="evenodd" d="M62.2894 363.832C56.9655 355.224 53.9665 345.493 53.9665 335.19C53.9665 300.063 88.8282 271.587 131.832 271.587C159.483 271.587 183.768 283.36 197.584 301.104C211.394 290.904 229.703 284.693 249.788 284.693C271.325 284.693 290.82 291.835 304.917 303.379C313.43 300.768 322.65 299.341 332.279 299.341C369.313 299.341 400.309 320.459 408.201 348.757C412.346 348.2 416.601 347.911 420.939 347.911C463.943 347.911 498.804 376.387 498.804 411.514C498.804 446.641 463.943 475.117 420.939 475.117C405.895 475.117 391.847 471.632 379.94 465.597C369.618 490.842 340.444 509.039 306.067 509.039C282.972 509.039 262.225 500.826 247.965 487.78C235.966 510.275 208.505 526 176.547 526C143.766 526 115.716 509.453 104.232 486.026C95.9982 488.447 87.1206 489.765 77.8659 489.765C34.8618 489.765 0 461.289 0 426.162C0 395.392 26.7493 369.726 62.2894 363.832Z"/>
</mask>
<path d="M62.2894 363.832L63.1075 368.764L70.4646 367.544L66.5418 361.201L62.2894 363.832ZM197.584 301.104L193.639 304.175L196.633 308.021L200.554 305.126L197.584 301.104ZM304.917 303.379L301.749 307.247L303.822 308.944L306.383 308.159L304.917 303.379ZM408.201 348.757L403.385 350.101L404.554 354.293L408.867 353.713L408.201 348.757ZM379.94 465.597L382.2 461.137L377.364 458.686L375.312 463.705L379.94 465.597ZM247.965 487.78L251.34 484.091L246.586 479.742L243.554 485.427L247.965 487.78ZM104.232 486.026L108.722 483.826L106.867 480.041L102.823 481.229L104.232 486.026ZM66.5418 361.201C61.6697 353.324 58.9665 344.496 58.9665 335.19H48.9665C48.9665 346.49 52.2614 357.123 58.0371 366.462L66.5418 361.201ZM58.9665 335.19C58.9665 303.722 90.5964 276.587 131.832 276.587V266.587C87.0601 266.587 48.9665 296.403 48.9665 335.19H58.9665ZM131.832 276.587C158.129 276.587 180.88 287.789 193.639 304.175L201.529 298.032C186.657 278.93 160.838 266.587 131.832 266.587V276.587ZM200.554 305.126C213.462 295.593 230.718 289.693 249.788 289.693V279.693C228.688 279.693 209.327 286.216 194.613 297.082L200.554 305.126ZM249.788 289.693C270.241 289.693 288.6 296.479 301.749 307.247L308.085 299.51C293.041 287.191 272.409 279.693 249.788 279.693V289.693ZM306.383 308.159C314.417 305.695 323.144 304.341 332.279 304.341V294.341C322.157 294.341 312.442 295.842 303.451 298.598L306.383 308.159ZM332.279 304.341C367.647 304.341 396.238 324.475 403.385 350.101L413.017 347.414C404.38 316.444 370.979 294.341 332.279 294.341V304.341ZM408.867 353.713C412.791 353.185 416.823 352.911 420.939 352.911V342.911C416.378 342.911 411.901 343.215 407.535 343.802L408.867 353.713ZM420.939 352.911C462.175 352.911 493.804 380.046 493.804 411.514H503.804C503.804 372.727 465.711 342.911 420.939 342.911V352.911ZM493.804 411.514C493.804 442.982 462.175 470.117 420.939 470.117V480.117C465.711 480.117 503.804 450.301 503.804 411.514H493.804ZM420.939 470.117C406.662 470.117 393.391 466.81 382.2 461.137L377.679 470.057C390.303 476.455 405.127 480.117 420.939 480.117V470.117ZM375.312 463.705C365.911 486.697 338.849 504.039 306.067 504.039V514.039C342.039 514.039 373.325 494.987 384.568 467.489L375.312 463.705ZM306.067 504.039C284.128 504.039 264.612 496.233 251.34 484.091L244.59 491.469C259.838 505.419 281.815 514.039 306.067 514.039V504.039ZM243.554 485.427C232.568 506.021 206.987 521 176.547 521V531C210.022 531 239.364 514.528 252.377 490.134L243.554 485.427ZM176.547 521C145.311 521 119.217 505.235 108.722 483.826L99.7428 488.227C112.215 513.671 142.221 531 176.547 531V521ZM102.823 481.229C95.0488 483.514 86.6461 484.765 77.8659 484.765V494.765C87.5952 494.765 96.9477 493.379 105.642 490.824L102.823 481.229ZM77.8659 484.765C36.6299 484.765 5 457.63 5 426.162H-5C-5 464.949 33.0936 494.765 77.8659 494.765V484.765ZM5 426.162C5 398.567 29.1824 374.39 63.1075 368.764L61.4714 358.899C24.3162 365.061 -5 392.218 -5 426.162H5Z" fill="#45539F" mask="url(#path-2-inside-1)"/>
<path fill-rule="evenodd" clip-rule="evenodd" d="M85.4179 342.245C80.094 333.637 77.095 323.906 77.095 313.603C77.095 278.476 111.957 250 154.961 250C182.612 250 206.897 261.773 220.712 279.517C234.523 269.318 252.831 263.106 272.916 263.106C294.454 263.106 313.949 270.249 328.045 281.792C336.558 279.182 345.779 277.754 355.408 277.754C392.442 277.754 423.437 298.873 431.33 327.171C435.474 326.614 439.729 326.324 444.067 326.324C487.071 326.324 521.933 354.8 521.933 389.927C521.933 425.055 487.071 453.531 444.067 453.531C429.023 453.531 414.975 450.046 403.068 444.01C392.747 469.255 363.573 487.453 329.196 487.453C306.1 487.453 285.353 479.239 271.094 466.194C259.094 488.688 231.633 504.413 199.676 504.413C166.894 504.413 138.844 487.866 127.361 464.44C119.127 466.86 110.249 468.179 100.994 468.179C57.9902 468.179 23.1285 439.703 23.1285 404.575C23.1285 373.806 49.8778 348.139 85.4179 342.245Z" fill="url(#paint0_linear)"/>
<mask id="path-5-inside-2" fill="white">
<path fill-rule="evenodd" clip-rule="evenodd" d="M780.289 742.831C774.966 734.224 771.966 724.493 771.966 714.19C771.966 679.063 806.828 650.587 849.832 650.587C877.483 650.587 901.768 662.359 915.584 680.104C929.394 669.904 947.703 663.693 967.788 663.693C989.325 663.693 1008.82 670.835 1022.92 682.379C1031.43 679.768 1040.65 678.341 1050.28 678.341C1087.31 678.341 1118.31 699.459 1126.2 727.757C1130.35 727.2 1134.6 726.911 1138.94 726.911C1181.94 726.911 1216.8 755.387 1216.8 790.514C1216.8 825.641 1181.94 854.117 1138.94 854.117C1123.89 854.117 1109.85 850.632 1097.94 844.597C1087.62 869.842 1058.44 888.039 1024.07 888.039C1000.97 888.039 980.225 879.826 965.965 866.78C953.966 889.275 926.505 905 894.547 905C861.766 905 833.716 888.453 822.232 865.026C813.998 867.447 805.121 868.765 795.866 868.765C752.862 868.765 718 840.289 718 805.162C718 774.392 744.749 748.726 780.289 742.831Z"/>
</mask>
<path d="M780.289 742.831L781.107 747.764L788.465 746.544L784.542 740.201L780.289 742.831ZM915.584 680.104L911.639 683.175L914.633 687.021L918.554 684.126L915.584 680.104ZM1022.92 682.379L1019.75 686.247L1021.82 687.944L1024.38 687.159L1022.92 682.379ZM1126.2 727.757L1121.38 729.101L1122.55 733.293L1126.87 732.713L1126.2 727.757ZM1097.94 844.597L1100.2 840.137L1095.36 837.686L1093.31 842.705L1097.94 844.597ZM965.965 866.78L969.34 863.091L964.586 858.742L961.554 864.427L965.965 866.78ZM822.232 865.026L826.722 862.826L824.867 859.041L820.823 860.229L822.232 865.026ZM784.542 740.201C779.67 732.324 776.966 723.496 776.966 714.19H766.966C766.966 725.49 770.261 736.123 776.037 745.462L784.542 740.201ZM776.966 714.19C776.966 682.722 808.596 655.587 849.832 655.587V645.587C805.06 645.587 766.966 675.403 766.966 714.19H776.966ZM849.832 655.587C876.129 655.587 898.88 666.789 911.639 683.175L919.529 677.032C904.657 657.93 878.838 645.587 849.832 645.587V655.587ZM918.554 684.126C931.462 674.593 948.718 668.693 967.788 668.693V658.693C946.688 658.693 927.327 665.216 912.613 676.082L918.554 684.126ZM967.788 668.693C988.241 668.693 1006.6 675.479 1019.75 686.247L1026.08 678.51C1011.04 666.191 990.409 658.693 967.788 658.693V668.693ZM1024.38 687.159C1032.42 684.695 1041.14 683.341 1050.28 683.341V673.341C1040.16 673.341 1030.44 674.842 1021.45 677.598L1024.38 687.159ZM1050.28 683.341C1085.65 683.341 1114.24 703.474 1121.38 729.101L1131.02 726.414C1122.38 695.444 1088.98 673.341 1050.28 673.341V683.341ZM1126.87 732.713C1130.79 732.185 1134.82 731.911 1138.94 731.911V721.911C1134.38 721.911 1129.9 722.215 1125.54 722.802L1126.87 732.713ZM1138.94 731.911C1180.17 731.911 1211.8 759.046 1211.8 790.514H1221.8C1221.8 751.727 1183.71 721.911 1138.94 721.911V731.911ZM1211.8 790.514C1211.8 821.981 1180.17 849.117 1138.94 849.117V859.117C1183.71 859.117 1221.8 829.301 1221.8 790.514H1211.8ZM1138.94 849.117C1124.66 849.117 1111.39 845.81 1100.2 840.137L1095.68 849.057C1108.3 855.455 1123.13 859.117 1138.94 859.117V849.117ZM1093.31 842.705C1083.91 865.697 1056.85 883.039 1024.07 883.039V893.039C1060.04 893.039 1091.33 873.987 1102.57 846.489L1093.31 842.705ZM1024.07 883.039C1002.13 883.039 982.612 875.233 969.34 863.091L962.59 870.469C977.838 884.419 999.815 893.039 1024.07 893.039V883.039ZM961.554 864.427C950.568 885.021 924.987 900 894.547 900V910C928.022 910 957.364 893.528 970.377 869.134L961.554 864.427ZM894.547 900C863.311 900 837.217 884.235 826.722 862.826L817.743 867.227C830.215 892.67 860.221 910 894.547 910V900ZM820.823 860.229C813.049 862.514 804.646 863.765 795.866 863.765V873.765C805.595 873.765 814.948 872.379 823.642 869.823L820.823 860.229ZM795.866 863.765C754.63 863.765 723 836.63 723 805.162H713C713 843.949 751.094 873.765 795.866 873.765V863.765ZM723 805.162C723 777.567 747.182 753.39 781.107 747.764L779.471 737.899C742.316 744.061 713 771.218 713 805.162H723Z" fill="#45539F" mask="url(#path-5-inside-2)"/>
<path fill-rule="evenodd" clip-rule="evenodd" d="M803.418 721.245C798.094 712.637 795.095 702.906 795.095 692.603C795.095 657.476 829.957 629 872.961 629C900.612 629 924.897 640.773 938.712 658.517C952.523 648.318 970.831 642.106 990.916 642.106C1012.45 642.106 1031.95 649.249 1046.05 660.792C1054.56 658.182 1063.78 656.754 1073.41 656.754C1110.44 656.754 1141.44 677.873 1149.33 706.171C1153.47 705.614 1157.73 705.324 1162.07 705.324C1205.07 705.324 1239.93 733.8 1239.93 768.927C1239.93 804.055 1205.07 832.531 1162.07 832.531C1147.02 832.531 1132.98 829.046 1121.07 823.01C1110.75 848.255 1081.57 866.453 1047.2 866.453C1024.1 866.453 1003.35 858.239 989.094 845.194C977.094 867.688 949.633 883.413 917.676 883.413C884.894 883.413 856.844 866.866 845.361 843.44C837.127 845.86 828.249 847.179 818.994 847.179C775.99 847.179 741.128 818.703 741.128 783.575C741.128 752.806 767.878 727.139 803.418 721.245Z" fill="url(#paint1_linear)"/>
<defs>
<linearGradient id="paint0_linear" x1="272.531" y1="250" x2="272.531" y2="504.413" gradientUnits="userSpaceOnUse">
<stop offset="0.260417" stop-color="#3D26CB"/>
<stop offset="1" stop-color="#45539F" stop-opacity="0"/>
</linearGradient>
<linearGradient id="paint1_linear" x1="990.531" y1="629" x2="990.531" y2="883.413" gradientUnits="userSpaceOnUse">
<stop offset="0.260417" stop-color="#3D26CB"/>
<stop offset="1" stop-color="#45539F" stop-opacity="0"/>
</linearGradient>
</defs>
</svg>
